<?xml version="1.0" encoding="UTF-8" standalone="no"?>
<svg width="75px" height="75px" viewBox="0 0 75 75" version="1.1" xmlns="http://www.w3.org/2000/svg" xmlns:xlink="http://www.w3.org/1999/xlink">
    <!-- Generator: Sketch 3.8.1 (29687) - http://www.bohemiancoding.com/sketch -->
    <title>Logo</title>
    <desc>Created with Sketch.</desc>
    <defs></defs>
    <g id="Page-1" stroke="none" stroke-width="1" fill="none" fill-rule="evenodd">
        <g id="Sprite-Sheet">
            <g id="Logo">
                <path d="M1.89393939,37.8511364 C1.89393939,18.3806818 17.6780303,2.59659091 37.1484848,2.59659091 C56.619697,2.59659091 72.4037879,18.3806818 72.4037879,37.8511364 C72.4037879,57.3215909 56.619697,73.1056818 37.1484848,73.1056818 C17.6780303,73.1056818 1.89393939,57.3215909 1.89393939,37.8511364 L1.89393939,37.8511364 Z" id="Fill" fill="#4990E2"></path>
                <path d="M3.78787879,37.8511364 C3.78787879,19.4266757 18.7240241,4.4905303 37.1484848,4.4905303 C55.5735923,4.4905303 70.5098485,19.4265648 70.5098485,37.8511364 C70.5098485,56.2757079 55.5735923,71.2117424 37.1484848,71.2117424 C18.7240241,71.2117424 3.78787879,56.2755971 3.78787879,37.8511364 L3.78787879,37.8511364 Z M0,37.8511364 C0,58.3675848 16.6320365,74.9996212 37.1484848,74.9996212 C57.6655674,74.9996212 74.2977273,58.3677082 74.2977273,37.8511364 C74.2977273,17.3345645 57.6655674,0.702651515 37.1484848,0.702651515 C16.6320365,0.702651515 0,17.334688 0,37.8511364 L0,37.8511364 Z" id="Stroke" fill="#FEFEFE"></path>
                <g id="Asteroid" transform="translate(15.909091, 16.666667)" fill="#FEFEFE">
                    <path d="M8.91780303,30.6781061 L22.2314394,38.2637121 L36.4367424,28.8387121 L36.857197,16.797803 L25.8799242,3.9425 L8.7125,8.28416667 L3.77992424,18.8705303 L8.91780303,30.6781061 Z M22.3549242,41.9296212 L6.46780303,32.8773485 L0.355681818,18.8258333 L6.50795455,5.6205303 L26.9943182,0.439469697 L40.0208333,15.6932576 L39.5011364,30.5531061 L22.3549242,41.9296212 Z" id="Fill-5"></path>
                    <polygon id="Fill-7" points="22.2259848 40.8112121 13.1585606 24.3809091 8.89340909 32.1437879 6.15628788 30.6392424 13.1525 17.9066667 22.0835606 34.0892424 29.0843182 20.0233333 38.1744697 14.8263636 39.7237121 17.5369697 31.4570455 22.2642424"></polygon>
                    <polygon id="Fill-9" points="30.2709091 22.7053788 12.0890909 22.7053788 6.15575758 7.5205303 9.06560606 6.38416667 14.2216667 19.5818939 30.2709091 19.5818939"></polygon>
                </g>
            </g>
        </g>
    </g>
</svg>