<?xml version="1.0" encoding="UTF-8" standalone="no"?>
<svg width="446px" height="75px" viewBox="0 0 446 75" version="1.1" xmlns="http://www.w3.org/2000/svg" xmlns:xlink="http://www.w3.org/1999/xlink">
    <!-- Generator: Sketch 3.8.1 (29687) - http://www.bohemiancoding.com/sketch -->
    <title>Sprite Sheet</title>
    <desc>Created with Sketch.</desc>
    <defs>
        <polygon id="path-1" points="0 0.0890195122 0 28.9382634 21.4472915 28.9382634 21.4472915 0.0890195122 0 0.0890195122"></polygon>
        <polygon id="path-3" points="0.760253066 30.5853659 27.0244913 30.5853659 27.0244913 0.178039024 0.760253066 0.178039024"></polygon>
        <polygon id="path-5" points="26.7298158 0.311487805 0.464773349 0.311487805 0.464773349 30.7184927 26.7298158 30.7184927"></polygon>
    </defs>
    <g id="Page-1" stroke="none" stroke-width="1" fill="none" fill-rule="evenodd">
        <g id="Sprite-Sheet">
            <g id="Logo">
                <path d="M1.89393939,37.8511364 C1.89393939,18.3806818 17.6780303,2.59659091 37.1484848,2.59659091 C56.619697,2.59659091 72.4037879,18.3806818 72.4037879,37.8511364 C72.4037879,57.3215909 56.619697,73.1056818 37.1484848,73.1056818 C17.6780303,73.1056818 1.89393939,57.3215909 1.89393939,37.8511364 L1.89393939,37.8511364 Z" id="Fill" fill="#4990E2"></path>
                <path d="M3.78787879,37.8511364 C3.78787879,19.4266757 18.7240241,4.4905303 37.1484848,4.4905303 C55.5735923,4.4905303 70.5098485,19.4265648 70.5098485,37.8511364 C70.5098485,56.2757079 55.5735923,71.2117424 37.1484848,71.2117424 C18.7240241,71.2117424 3.78787879,56.2755971 3.78787879,37.8511364 L3.78787879,37.8511364 Z M0,37.8511364 C0,58.3675848 16.6320365,74.9996212 37.1484848,74.9996212 C57.6655674,74.9996212 74.2977273,58.3677082 74.2977273,37.8511364 C74.2977273,17.3345645 57.6655674,0.702651515 37.1484848,0.702651515 C16.6320365,0.702651515 0,17.334688 0,37.8511364 L0,37.8511364 Z" id="Stroke" fill="#FEFEFE"></path>
                <g id="Asteroid" transform="translate(15.909091, 16.666667)" fill="#FEFEFE">
                    <path d="M8.91780303,30.6781061 L22.2314394,38.2637121 L36.4367424,28.8387121 L36.857197,16.797803 L25.8799242,3.9425 L8.7125,8.28416667 L3.77992424,18.8705303 L8.91780303,30.6781061 Z M22.3549242,41.9296212 L6.46780303,32.8773485 L0.355681818,18.8258333 L6.50795455,5.6205303 L26.9943182,0.439469697 L40.0208333,15.6932576 L39.5011364,30.5531061 L22.3549242,41.9296212 Z" id="Fill-5"></path>
                    <polygon id="Fill-7" points="22.2259848 40.8112121 13.1585606 24.3809091 8.89340909 32.1437879 6.15628788 30.6392424 13.1525 17.9066667 22.0835606 34.0892424 29.0843182 20.0233333 38.1744697 14.8263636 39.7237121 17.5369697 31.4570455 22.2642424"></polygon>
                    <polygon id="Fill-9" points="30.2709091 22.7053788 12.0890909 22.7053788 6.15575758 7.5205303 9.06560606 6.38416667 14.2216667 19.5818939 30.2709091 19.5818939"></polygon>
                </g>
            </g>
            <g id="text" transform="translate(105.000000, 21.000000)">
                <g id="Group-3" transform="translate(0.000000, 2.103468)">
                    <mask id="mask-2" fill="white">
                        <use xlink:href="#path-1"></use>
                    </mask>
                    <g id="Clip-2"></g>
                    <path d="M5.54334104,25.9537756 C9.06030566,25.9537756 12.0046476,25.456361 14.6417679,22.9692878 C17.012683,20.750239 18.2359401,17.7271171 18.2359401,14.513239 C18.2359401,11.2237024 16.9748835,8.04765366 14.4889613,5.86723902 C11.851841,3.5322878 8.94610283,3.0743122 5.54334104,3.0743122 L3.21102972,3.0743122 L3.21102972,25.9537756 L5.54334104,25.9537756 Z M-0.000321698113,0.0890195122 L5.42833396,0.0890195122 C9.74873962,0.0890195122 13.2657042,0.663702439 16.668466,3.57172683 C19.9562208,6.40248293 21.4472915,10.2667024 21.4472915,14.5518732 C21.4472915,18.7613854 19.9184212,22.4718732 16.7448693,25.3034341 C13.304308,28.3643854 9.86294245,28.9382634 5.35193066,28.9382634 L-0.000321698113,28.9382634 L-0.000321698113,0.0890195122 Z" id="Fill-1" fill="#FEFEFE" mask="url(#mask-2)"></path>
                </g>
                <polygon id="Fill-4" fill="#FEFEFE" points="37.385905 2.19264878 52.334412 2.19264878 52.334412 5.17794146 40.5972564 5.17794146 40.5972564 13.7482829 51.990195 13.7482829 51.990195 16.7319659 40.5972564 16.7319659 40.5972564 28.0574049 52.334412 28.0574049 52.334412 31.0410878 37.385905 31.0410878"></polygon>
                <polygon id="Fill-6" fill="#FEFEFE" points="104.589525 2.19264878 119.538033 2.19264878 119.538033 5.17794146 107.800877 5.17794146 107.800877 13.7482829 119.193816 13.7482829 119.193816 16.7319659 107.800877 16.7319659 107.800877 28.0574049 119.538033 28.0574049 119.538033 31.0410878 104.589525 31.0410878"></polygon>
                <polygon id="Fill-8" fill="#FEFEFE" points="139.682286 28.0572439 147.634663 28.0572439 147.634663 31.0417317 136.470934 31.0417317 136.470934 2.1924878 139.682286 2.1924878"></polygon>
                <polygon id="Fill-10" fill="#FEFEFE" points="206.885585 0.96834878 229.365045 24.5375927 229.365045 2.19256829 232.576396 2.19256829 232.576396 32.3424951 210.09774 8.81188537 210.09774 31.0418122 206.885585 31.0418122"></polygon>
                <path d="M291.368978,19.3724488 C291.368978,21.5142293 291.291771,23.9634732 292.630839,25.8002049 C293.891896,27.5596683 296.33841,28.5544976 298.441511,28.5544976 C300.506009,28.5544976 302.761113,27.5983024 304.100181,25.9917659 C305.629051,24.1550341 305.514044,21.6293268 305.514044,19.3724488 L305.514044,2.19232683 L308.725396,2.19232683 L308.725396,20.2521805 C308.725396,23.3895951 308.496186,25.8766683 306.201674,28.2486439 C304.214384,30.3912293 301.346445,31.5389854 298.441511,31.5389854 C295.726379,31.5389854 292.936452,30.5063268 290.986157,28.5931317 C288.46324,26.182522 288.157627,23.542522 288.157627,20.2521805 L288.157627,2.19232683 L291.368978,2.19232683 L291.368978,19.3724488 Z" id="Fill-12" fill="#FEFEFE"></path>
                <polygon id="Fill-14" fill="#FEFEFE" points="333.533306 31.0414902 330.321955 31.0414902 330.321955 5.17753902 323.364429 5.17753902 323.364429 2.19305122 340.56804 2.19305122 340.56804 5.17753902 333.533306 5.17753902"></polygon>
                <g id="Group-18" transform="translate(64.339623, 2.103468)">
                    <mask id="mask-4" fill="white">
                        <use xlink:href="#path-3"></use>
                    </mask>
                    <g id="Clip-17"></g>
                    <path d="M20.8229559,6.67581951 L20.8205432,6.68064878 L20.0275573,8.54716098 L20.0179064,8.54716098 L18.0845007,13.0399902 L13.7962649,23.086478 L10.3323804,14.777722 L7.72421297,8.54716098 L7.71777901,8.54716098 L6.78887571,6.31281951 L6.78807146,6.31120976 L5.49967052,3.20920976 L22.2963333,3.20920976 L20.8229559,6.67581951 Z M26.7534606,0.178039024 L0.760253066,0.178039024 L0.942816745,0.359941463 L0.760253066,0.359941463 L13.7198616,30.5855268 L27.0244913,0.359941463 L26.6818828,0.359941463 L26.7534606,0.178039024 Z" id="Fill-16" fill="#FEFEFE" mask="url(#mask-4)"></path>
                </g>
                <g id="Group-21" transform="translate(246.903302, 0.493712)">
                    <mask id="mask-6" fill="white">
                        <use xlink:href="#path-5"></use>
                    </mask>
                    <g id="Clip-20"></g>
                    <path d="M6.66630873,24.2207122 L6.66872146,24.2158829 L7.46170731,22.3493707 L7.47135825,22.3493707 L9.40476392,17.8565415 L13.6929998,7.81005366 L17.1568842,16.1188098 L19.7650517,22.3493707 L19.7714856,22.3493707 L20.7003889,24.5837122 L20.7011932,24.585322 L21.9895941,27.687322 L5.19293137,27.687322 L6.66630873,24.2207122 L6.66630873,24.2207122 Z M26.7298158,30.5365902 L13.7694031,0.311004878 L0.464773349,30.5365902 L0.80738184,30.5365902 L0.735804009,30.7184927 L26.7298158,30.7184927 L26.7298158,30.6991756 L26.5536861,30.5365902 L26.7298158,30.5365902 Z" id="Fill-19" fill="#FEFEFE" mask="url(#mask-6)"></path>
                </g>
                <path d="M184.857467,4.47616829 C186.824651,6.9873878 188.006892,10.1384854 188.006892,13.5640463 C188.006892,21.8003634 181.256057,28.3279244 173.102618,28.3279244 C169.406307,28.3279244 166.001937,26.9829732 163.380097,24.7494366 C166.119356,28.2554854 170.408396,30.4946561 175.180788,30.4946561 C183.334227,30.4946561 190.084257,23.9662902 190.084257,15.730778 C190.084257,11.2282902 188.044691,7.19746098 184.857467,4.47616829" id="Fill-22" fill="#FEFEFE"></path>
            </g>
        </g>
    </g>
</svg>